<svg height="511pt" viewBox="1 -60 511.99975 511" width="511pt" xmlns="http://www.w3.org/2000/svg"><path d="m355.105469 78.320312h-259.121094l37.640625-37.648437c4.101562-4.097656 4.101562-10.742187 0-14.839844l-22.257812-22.257812c-4.097657-4.101563-10.746094-4.097657-14.84375.003906l-93.453126 93.558594c-4.09375 4.097656-4.09375 10.738281 0 14.835937l93.453126 93.558594c4.097656 4.101562 10.746093 4.105469 14.847656.003906l22.257812-22.257812c4.097656-4.097656 4.097656-10.742188 0-14.839844l-37.644531-37.648438h259.121094c57.671875 0 104.421875 46.753907 104.421875 104.421876 0 57.671874-46.75 104.421874-104.421875 104.421874h-174.738281c-5.796876 0-10.496094 4.699219-10.496094 10.496094v31.484375c0 5.796875 4.699218 10.496094 10.496094 10.496094h174.738281c86.648437 0 156.894531-70.246094 156.894531-156.894531 0-86.652344-70.246094-156.894532-156.894531-156.894532zm0 0" fill="#d8d8d8"/><g fill="#bababa"><path d="m451.734375 111.601562c22.558594 27.171876 36.128906 62.078126 36.128906 100.152344 0 86.652344-70.246093 156.898438-156.898437 156.898438h-161.09375v12.960937c0 5.796875 4.699218 10.496094 10.496094 10.496094h174.738281c86.648437 0 156.894531-70.246094 156.894531-156.894531 0-50.203125-23.578125-94.894532-60.265625-123.613282zm0 0"/><path d="m355.105469 130.792969c22.226562 0 42.824219 6.949219 59.757812 18.785156-19.03125-25.632813-49.523437-42.246094-83.898437-42.246094h-213.589844c-11.582031 0-20.976562 9.382813-20.992188 20.964844l-.003906 2.894531zm0 0"/></g></svg>